<svg width="25" height="24" viewBox="0 0 25 24" fill="none" xmlns="http://www.w3.org/2000/svg">
<path fill-rule="evenodd" clip-rule="evenodd" d="M9.83333 1.33333H23.1667C23.5203 1.33333 23.8594 1.47381 24.1095 1.72386C24.3595 1.97391 24.5 2.31304 24.5 2.66667C24.5 3.02029 24.3595 3.35943 24.1095 3.60948C23.8594 3.85952 23.5203 4 23.1667 4H9.83333C9.47971 4 9.14057 3.85952 8.89052 3.60948C8.64048 3.35943 8.5 3.02029 8.5 2.66667C8.5 2.31304 8.64048 1.97391 8.89052 1.72386C9.14057 1.47381 9.47971 1.33333 9.83333 1.33333ZM9.83333 10.6667H23.1667C23.5203 10.6667 23.8594 10.8071 24.1095 11.0572C24.3595 11.3072 24.5 11.6464 24.5 12C24.5 12.3536 24.3595 12.6928 24.1095 12.9428C23.8594 13.1929 23.5203 13.3333 23.1667 13.3333H9.83333C9.47971 13.3333 9.14057 13.1929 8.89052 12.9428C8.64048 12.6928 8.5 12.3536 8.5 12C8.5 11.6464 8.64048 11.3072 8.89052 11.0572C9.14057 10.8071 9.47971 10.6667 9.83333 10.6667ZM9.83333 20H23.1667C23.5203 20 23.8594 20.1405 24.1095 20.3905C24.3595 20.6406 24.5 20.9797 24.5 21.3333C24.5 21.687 24.3595 22.0261 24.1095 22.2761C23.8594 22.5262 23.5203 22.6667 23.1667 22.6667H9.83333C9.47971 22.6667 9.14057 22.5262 8.89052 22.2761C8.64048 22.0261 8.5 21.687 8.5 21.3333C8.5 20.9797 8.64048 20.6406 8.89052 20.3905C9.14057 20.1405 9.47971 20 9.83333 20ZM3.16667 5.33333C2.45942 5.33333 1.78115 5.05238 1.28105 4.55229C0.780951 4.05219 0.5 3.37391 0.5 2.66667C0.5 1.95942 0.780951 1.28115 1.28105 0.781048C1.78115 0.280951 2.45942 0 3.16667 0C3.87391 0 4.55219 0.280951 5.05229 0.781048C5.55238 1.28115 5.83333 1.95942 5.83333 2.66667C5.83333 3.37391 5.55238 4.05219 5.05229 4.55229C4.55219 5.05238 3.87391 5.33333 3.16667 5.33333ZM3.16667 14.6667C2.45942 14.6667 1.78115 14.3857 1.28105 13.8856C0.780951 13.3855 0.5 12.7072 0.5 12C0.5 11.2928 0.780951 10.6145 1.28105 10.1144C1.78115 9.61429 2.45942 9.33333 3.16667 9.33333C3.87391 9.33333 4.55219 9.61429 5.05229 10.1144C5.55238 10.6145 5.83333 11.2928 5.83333 12C5.83333 12.7072 5.55238 13.3855 5.05229 13.8856C4.55219 14.3857 3.87391 14.6667 3.16667 14.6667ZM3.16667 24C2.45942 24 1.78115 23.719 1.28105 23.219C0.780951 22.7189 0.5 22.0406 0.5 21.3333C0.5 20.6261 0.780951 19.9478 1.28105 19.4477C1.78115 18.9476 2.45942 18.6667 3.16667 18.6667C3.87391 18.6667 4.55219 18.9476 5.05229 19.4477C5.55238 19.9478 5.83333 20.6261 5.83333 21.3333C5.83333 22.0406 5.55238 22.7189 5.05229 23.219C4.55219 23.719 3.87391 24 3.16667 24Z" fill="#FEFFFF"/>
</svg>
