<svg width="23" height="23" viewBox="0 0 23 23" fill="none" xmlns="http://www.w3.org/2000/svg">
<path d="M11.4997 5.66683C11.1461 5.66683 10.8069 5.80731 10.5569 6.05735C10.3068 6.3074 10.1663 6.64654 10.1663 7.00016V21.6668C10.1663 22.0205 10.3068 22.3596 10.5569 22.6096C10.8069 22.8597 11.1461 23.0002 11.4997 23.0002C11.8533 23.0002 12.1924 22.8597 12.4425 22.6096C12.6925 22.3596 12.833 22.0205 12.833 21.6668V7.00016C12.833 6.64654 12.6925 6.3074 12.4425 6.05735C12.1924 5.80731 11.8533 5.66683 11.4997 5.66683ZM20.833 0.333496C20.4794 0.333496 20.1402 0.473972 19.8902 0.724021C19.6401 0.974069 19.4997 1.31321 19.4997 1.66683V21.6668C19.4997 22.0205 19.6401 22.3596 19.8902 22.6096C20.1402 22.8597 20.4794 23.0002 20.833 23.0002C21.1866 23.0002 21.5258 22.8597 21.7758 22.6096C22.0259 22.3596 22.1663 22.0205 22.1663 21.6668V1.66683C22.1663 1.31321 22.0259 0.974069 21.7758 0.724021C21.5258 0.473972 21.1866 0.333496 20.833 0.333496ZM2.16634 11.0002C1.81272 11.0002 1.47358 11.1406 1.22353 11.3907C0.973484 11.6407 0.833008 11.9799 0.833008 12.3335V21.6668C0.833008 22.0205 0.973484 22.3596 1.22353 22.6096C1.47358 22.8597 1.81272 23.0002 2.16634 23.0002C2.51996 23.0002 2.8591 22.8597 3.10915 22.6096C3.3592 22.3596 3.49967 22.0205 3.49967 21.6668V12.3335C3.49967 11.9799 3.3592 11.6407 3.10915 11.3907C2.8591 11.1406 2.51996 11.0002 2.16634 11.0002Z" fill="#FEFFFF"/>
</svg>
