<svg width="25" height="24" viewBox="0 0 25 24" fill="none" xmlns="http://www.w3.org/2000/svg">
<path d="M4.49985 6.66651L12.4999 10.6665L20.4999 6.66651L12.4999 2.66651L4.49985 6.66651ZM13.1519 0.154512L23.8092 5.58918C24.4572 5.91985 24.6905 6.66918 24.3305 7.26518C24.205 7.46992 24.0249 7.63566 23.8105 7.74384L13.1519 13.1785C12.9496 13.2805 12.7263 13.3336 12.4999 13.3336C12.2734 13.3336 12.0501 13.2805 11.8479 13.1785L1.19052 7.74384C0.542519 7.41318 0.309186 6.66385 0.669186 6.06785C0.794715 5.8631 0.974772 5.69736 1.18919 5.58918L11.8479 0.154512C12.2532 -0.052155 12.7465 -0.052155 13.1519 0.154512ZM13.1519 18.5092C12.9501 18.6128 12.7266 18.6669 12.4999 18.6669C12.2731 18.6669 12.0496 18.6128 11.8479 18.5092L1.19052 12.9798C0.542519 12.6438 0.309186 11.8812 0.669186 11.2758C0.793891 11.0684 0.973969 10.8999 1.18919 10.7892C1.34464 10.7083 1.51729 10.6661 1.69252 10.6661C1.86775 10.6661 2.0404 10.7083 2.19585 10.7892L11.8492 15.7958C12.2532 16.0065 12.7465 16.0065 13.1519 15.7958L22.8039 10.7892C22.9591 10.7085 23.1315 10.6664 23.3065 10.6664C23.4815 10.6664 23.6539 10.7085 23.8092 10.7892C24.4572 11.1252 24.6905 11.8878 24.3305 12.4932C24.2058 12.7006 24.0257 12.8691 23.8105 12.9798L13.1519 18.5092ZM13.1519 23.8425C12.9501 23.9462 12.7266 24.0002 12.4999 24.0002C12.2731 24.0002 12.0496 23.9462 11.8479 23.8425L1.19052 18.3132C0.542519 17.9772 0.309186 17.2145 0.669186 16.6092C0.793891 16.4018 0.973969 16.2332 1.18919 16.1225C1.34464 16.0416 1.51729 15.9994 1.69252 15.9994C1.86775 15.9994 2.0404 16.0416 2.19585 16.1225L11.8492 21.1292C12.2532 21.3398 12.7465 21.3398 13.1519 21.1292L22.8039 16.1225C22.9591 16.0419 23.1315 15.9998 23.3065 15.9998C23.4815 15.9998 23.6539 16.0419 23.8092 16.1225C24.4572 16.4585 24.6905 17.2212 24.3305 17.8265C24.2058 18.0339 24.0257 18.2025 23.8105 18.3132L13.1519 23.8425Z" fill="#FEFFFF"/>
</svg>
