<svg width="27" height="22" viewBox="0 0 27 22" fill="none" xmlns="http://www.w3.org/2000/svg">
<path d="M22.5003 21.6668H4.50033C3.39348 21.6669 2.32855 21.2434 1.52402 20.4833C0.719481 19.7231 0.236324 18.6839 0.173659 17.5788L0.166992 17.3335V3.3335C0.166899 2.57333 0.455386 1.84147 0.974151 1.28583C1.49292 0.730182 2.20327 0.392192 2.96166 0.340163L3.16699 0.333496H19.8337C20.5938 0.333403 21.3257 0.62189 21.8813 1.14065C22.437 1.65942 22.775 2.36978 22.827 3.12816L22.8337 3.3335V4.3335H23.8337C24.5938 4.3334 25.3257 4.62189 25.8813 5.14065C26.437 5.65942 26.775 6.36978 26.827 7.12816L26.8337 7.3335V17.3335C26.8337 18.4403 26.4103 19.5053 25.6501 20.3098C24.8899 21.1143 23.8507 21.5975 22.7457 21.6602L22.5003 21.6668H4.50033H22.5003ZM4.50033 19.6668H22.5003C23.0861 19.6668 23.6505 19.4464 24.0813 19.0494C24.5121 18.6525 24.7778 18.108 24.8257 17.5242L24.8337 17.3335V7.3335C24.8336 7.09185 24.7461 6.85837 24.5873 6.67626C24.4285 6.49414 24.2091 6.37569 23.9697 6.34283L23.8337 6.3335H22.8337V16.6668C22.8336 16.9085 22.7461 17.142 22.5873 17.3241C22.4285 17.5062 22.2091 17.6246 21.9697 17.6575L21.8337 17.6668C21.592 17.6668 21.3585 17.5793 21.1764 17.4205C20.9943 17.2616 20.8759 17.0422 20.843 16.8028L20.8337 16.6668V3.3335C20.8336 3.09185 20.7461 2.85837 20.5873 2.67626C20.4285 2.49414 20.2091 2.37569 19.9697 2.34283L19.8337 2.3335H3.16699C2.92534 2.33351 2.69187 2.42102 2.50975 2.57985C2.32763 2.73868 2.20919 2.95809 2.17633 3.1975L2.16699 3.3335V17.3335C2.16701 17.9191 2.38722 18.4833 2.7839 18.914C3.18058 19.3448 3.72472 19.6106 4.30833 19.6588L4.50033 19.6668H22.5003H4.50033ZM13.8283 14.3335H17.8363C18.0897 14.3336 18.3336 14.4298 18.5187 14.6028C18.7038 14.7758 18.8164 15.0126 18.8337 15.2653C18.851 15.5181 18.7716 15.768 18.6117 15.9646C18.4519 16.1611 18.2233 16.2896 17.9723 16.3242L17.8363 16.3335H13.8283C13.575 16.3334 13.3311 16.2372 13.1459 16.0642C12.9608 15.8912 12.8482 15.6544 12.831 15.4017C12.8137 15.1489 12.893 14.899 13.0529 14.7024C13.2128 14.5059 13.4413 14.3774 13.6923 14.3428L13.8283 14.3335H17.8363H13.8283ZM9.82433 9.6735C10.0895 9.6735 10.3439 9.77885 10.5314 9.96639C10.719 10.1539 10.8243 10.4083 10.8243 10.6735V15.3335C10.8243 15.5987 10.719 15.8531 10.5314 16.0406C10.3439 16.2281 10.0895 16.3335 9.82433 16.3335H5.16433C4.89911 16.3335 4.64476 16.2281 4.45722 16.0406C4.26968 15.8531 4.16433 15.5987 4.16433 15.3335V10.6735C4.16433 10.4083 4.26968 10.1539 4.45722 9.96639C4.64476 9.77885 4.89911 9.6735 5.16433 9.6735H9.82433ZM8.82433 11.6735H6.16433V14.3335H8.82433V11.6735ZM13.8283 9.6735H17.8363C18.0897 9.67357 18.3336 9.76982 18.5187 9.94279C18.7038 10.1158 18.8164 10.3526 18.8337 10.6053C18.851 10.8581 18.7716 11.108 18.6117 11.3046C18.4519 11.5011 18.2233 11.6296 17.9723 11.6642L17.8363 11.6735H13.8283C13.5732 11.6761 13.3266 11.581 13.1393 11.4078C12.9519 11.2346 12.8379 10.9963 12.8205 10.7417C12.8031 10.4871 12.8837 10.2355 13.0458 10.0384C13.2079 9.84128 13.4392 9.7136 13.6923 9.68149L13.8283 9.6735H17.8363H13.8283ZM5.16433 5.00283H17.8363C18.0915 5.00023 18.338 5.09529 18.5254 5.26852C18.7127 5.44176 18.8268 5.68007 18.8442 5.93466C18.8616 6.18925 18.781 6.44085 18.6189 6.63795C18.4568 6.83504 18.2255 6.96272 17.9723 6.99483L17.8363 7.00283H5.16433C4.91096 7.00275 4.66707 6.9065 4.48194 6.73353C4.2968 6.56056 4.18423 6.32376 4.16696 6.07099C4.14969 5.81821 4.22901 5.56831 4.3889 5.37176C4.54879 5.17522 4.77733 5.0467 5.02833 5.01216L5.16433 5.00283H17.8363H5.16433Z" fill="#FEFFFF"/>
</svg>
