<svg width="25" height="24" viewBox="0 0 25 24" fill="none" xmlns="http://www.w3.org/2000/svg">
<path d="M12.5 3.41467L3.16667 10.8813V21.3333H9.83333V16H15.1667V21.3333H21.8333V11.5227C21.8334 11.3227 21.7885 11.1253 21.702 10.945C21.6154 10.7648 21.4894 10.6063 21.3333 10.4813L12.5 3.41467ZM12.5 0L22.9987 8.4C23.4668 8.77451 23.8448 9.24946 24.1047 9.78974C24.3646 10.33 24.4997 10.9218 24.5 11.5213V21.3333C24.5 22.0406 24.219 22.7189 23.719 23.219C23.2189 23.719 22.5406 24 21.8333 24H3.16667C2.45942 24 1.78115 23.719 1.28105 23.219C0.780951 22.7189 0.5 22.0406 0.5 21.3333V10.8813C0.50005 10.4816 0.589945 10.0871 0.763038 9.72682C0.93613 9.36655 1.18799 9.04981 1.5 8.8L12.5 0Z" fill="#FEFFFF"/>
</svg>
