<svg width="361" height="68" viewBox="0 0 361 68" fill="none" xmlns="http://www.w3.org/2000/svg">
<path d="M12.056 66.6094H0.823975V15.1534C0.823975 10.8014 2.10397 7.29739 4.66397 4.64139C7.22397 1.98539 11.128 0.657394 16.376 0.657394C20.984 0.657394 24.632 1.76139 27.32 3.96939C30.008 6.17739 31.8 9.32939 32.696 13.4254L41.816 53.0734C42.392 55.5054 43.832 56.7214 46.136 56.7214C48.376 56.7214 49.816 55.5054 50.456 53.0734L59.576 13.4254C60.472 9.32939 62.184 6.17739 64.712 3.96939C67.24 1.76139 70.84 0.657394 75.512 0.657394C80.76 0.657394 84.664 1.98539 87.224 4.64139C89.784 7.29739 91.064 10.8014 91.064 15.1534V66.6094H79.832V15.7294C79.832 14.4494 79.432 13.4414 78.632 12.7054C77.832 11.9694 76.696 11.6014 75.224 11.6014C73.88 11.6014 72.856 11.9054 72.152 12.5134C71.448 13.1214 70.968 13.9694 70.712 15.0574L61.4 54.7054C60.376 58.9934 58.68 62.2414 56.312 64.4494C53.944 66.6574 50.52 67.7614 46.04 67.7614C41.496 67.7614 37.992 66.6414 35.528 64.4014C33.064 62.1614 31.352 58.9294 30.392 54.7054L21.176 15.0574C20.92 13.9694 20.424 13.1214 19.688 12.5134C18.952 11.9054 17.944 11.6014 16.664 11.6014C15.192 11.6014 14.056 11.9694 13.256 12.7054C12.456 13.4414 12.056 14.4494 12.056 15.7294V66.6094ZM150.872 1.80939V13.1374H131.96V66.6094H120.536V13.1374H101.624V1.80939H150.872ZM187.64 53.9374L167.96 1.80939H155.48L177.176 59.4094C178.392 62.6094 180.168 64.8014 182.504 65.9854C184.84 67.1694 187.608 67.7614 190.808 67.7614C194.2 67.7614 197 67.1374 199.208 65.8894C201.416 64.6414 203.128 62.4814 204.344 59.4094L227.192 1.80939H214.616L193.976 53.9374C193.336 55.4094 192.28 56.1454 190.808 56.1454C189.272 56.1454 188.216 55.4094 187.64 53.9374ZM271.736 1.80939C275.384 1.80939 278.52 2.33739 281.144 3.39339C283.768 4.44939 285.928 5.85739 287.624 7.61739C289.32 9.37739 290.568 11.4414 291.368 13.8094C292.168 16.1774 292.568 18.6414 292.568 21.2014C292.568 23.2494 292.312 25.2814 291.8 27.2974C291.288 29.3134 290.488 31.2014 289.4 32.9614C288.312 34.7214 286.904 36.2734 285.176 37.6174C283.448 38.9614 281.336 39.9854 278.84 40.6894L293.912 66.6094H281.336L266.552 41.5534H249.656C248.568 41.5534 248.024 42.0974 248.024 43.1854V66.6094H236.696V40.9774C236.696 37.3294 237.496 34.7054 239.096 33.1054C240.696 31.5054 243.288 30.7054 246.872 30.7054H272.12C273.72 30.7054 275.096 30.4494 276.248 29.9374C277.4 29.4254 278.328 28.7534 279.032 27.9214C279.736 27.0894 280.264 26.1294 280.616 25.0414C280.968 23.9534 281.144 22.8334 281.144 21.6814C281.144 19.3774 280.424 17.3774 278.984 15.6814C277.544 13.9854 275.256 13.1374 272.12 13.1374H236.6V1.80939H271.736ZM355.352 13.1374V1.80939H322.52C318.936 1.80939 315.864 2.2734 313.304 3.2014C310.744 4.1294 308.648 5.42539 307.016 7.08939C305.384 8.75339 304.2 10.7214 303.464 12.9934C302.728 15.2654 302.36 17.7454 302.36 20.4334C302.36 22.6734 302.664 24.9134 303.272 27.1534C303.88 29.3934 304.968 31.4094 306.536 33.2014C308.104 34.9934 310.264 36.4334 313.016 37.5214C315.768 38.6094 319.32 39.1534 323.672 39.1534H338.744C340.728 39.1534 342.376 39.3774 343.688 39.8254C345 40.2734 346.04 40.8654 346.808 41.6014C347.576 42.3374 348.12 43.2014 348.44 44.1934C348.76 45.1854 348.92 46.1934 348.92 47.2174C348.92 49.5854 348.2 51.5214 346.76 53.0254C345.32 54.5294 343.064 55.2814 339.992 55.2814H303.512V66.6094H339.608C343.32 66.6094 346.472 66.1294 349.064 65.1694C351.656 64.2094 353.784 62.8814 355.448 61.1854C357.112 59.4894 358.328 57.4894 359.096 55.1854C359.864 52.8814 360.248 50.3534 360.248 47.6014C360.248 45.2974 359.944 42.9934 359.336 40.6894C358.728 38.3854 357.608 36.3374 355.976 34.5454C354.344 32.7534 352.12 31.2974 349.304 30.1774C346.488 29.0574 342.872 28.4974 338.456 28.4974H323.288C321.368 28.4974 319.8 28.2894 318.584 27.8734C317.368 27.4574 316.392 26.8814 315.656 26.1454C314.92 25.4094 314.408 24.5774 314.12 23.6494C313.832 22.7214 313.688 21.7774 313.688 20.8174C313.688 18.5774 314.36 16.7374 315.704 15.2974C317.048 13.8574 319.192 13.1374 322.136 13.1374H355.352Z" fill="#FEFEFF"/>
</svg>
