<svg width="40" height="40" viewBox="0 0 40 40" fill="none" xmlns="http://www.w3.org/2000/svg">
<path d="M13.3335 36.6667L20.0002 34.2177L26.6668 36.6667V25C24.8353 26.2071 22.4606 26.8735 20.0002 26.871C17.5397 26.8735 15.165 26.2071 13.3335 25V36.6667Z" stroke="#FEFFFF" stroke-width="2" stroke-linecap="round" stroke-linejoin="round"/>
<path d="M31.6668 15.0002C31.6686 16.6419 31.3231 18.2654 30.6528 19.764C29.9826 21.2627 29.0028 22.6026 27.7779 23.6957C25.6412 25.6125 22.8707 26.6709 20.0002 26.6668C17.1296 26.6709 14.3591 25.6125 12.2224 23.6957C10.9975 22.6026 10.0178 21.2627 9.34751 19.764C8.67727 18.2654 8.3317 16.6419 8.3335 15.0002C8.3335 8.55724 13.5573 3.3335 20.0002 3.3335C26.4431 3.3335 31.6668 8.55724 31.6668 15.0002Z" stroke="#FEFFFF" stroke-width="2" stroke-linecap="round" stroke-linejoin="round"/>
<path d="M17.8193 11.35V19.75H15.8753V12.91H14.1953V11.35H17.8193ZM25.5545 18.166V19.75H19.2065V18.49L22.4465 15.43C22.7905 15.102 23.0225 14.822 23.1425 14.59C23.2625 14.35 23.3225 14.114 23.3225 13.882C23.3225 13.546 23.2065 13.29 22.9745 13.114C22.7505 12.93 22.4185 12.838 21.9785 12.838C21.6105 12.838 21.2785 12.91 20.9825 13.054C20.6865 13.19 20.4385 13.398 20.2385 13.678L18.8225 12.766C19.1505 12.278 19.6025 11.898 20.1785 11.626C20.7545 11.346 21.4145 11.206 22.1585 11.206C22.7825 11.206 23.3265 11.31 23.7905 11.518C24.2625 11.718 24.6265 12.006 24.8825 12.382C25.1465 12.75 25.2785 13.186 25.2785 13.69C25.2785 14.146 25.1825 14.574 24.9905 14.974C24.7985 15.374 24.4265 15.83 23.8745 16.342L21.9425 18.166H25.5545Z" fill="#FEFFFF"/>
</svg>
