<svg width="33" height="32" viewBox="0 0 33 32" fill="none" xmlns="http://www.w3.org/2000/svg">
<g clip-path="url(#clip0)">
<path d="M5.80285 13.1198C5.85648 12.4516 6.15985 11.828 6.65255 11.3734C7.14524 10.9187 7.7911 10.6664 8.46151 10.6665H24.5388C25.2093 10.6664 25.8551 10.9187 26.3478 11.3734C26.8405 11.828 27.1439 12.4516 27.1975 13.1198L28.2682 26.4532C28.2976 26.8201 28.2508 27.1891 28.1306 27.5371C28.0104 27.885 27.8195 28.2043 27.5699 28.4748C27.3203 28.7454 27.0174 28.9613 26.6802 29.109C26.343 29.2567 25.979 29.3331 25.6108 29.3332H7.38951C7.02141 29.3331 6.65731 29.2567 6.32015 29.109C5.98299 28.9613 5.68006 28.7454 5.43044 28.4748C5.18082 28.2043 4.98991 27.885 4.86974 27.5371C4.74957 27.1891 4.70273 26.8201 4.73218 26.4532L5.80285 13.1198V13.1198Z" stroke="#FEFFFF" stroke-width="2" stroke-linecap="round" stroke-linejoin="round"/>
<path d="M21.8337 14.6665V7.99984C21.8337 6.58535 21.2718 5.2288 20.2716 4.2286C19.2714 3.22841 17.9148 2.6665 16.5003 2.6665C15.0858 2.6665 13.7293 3.22841 12.7291 4.2286C11.7289 5.2288 11.167 6.58535 11.167 7.99984V14.6665" stroke="#FEFFFF" stroke-width="2" stroke-linecap="round" stroke-linejoin="round"/>
</g>
<defs>
<clipPath id="clip0">
<rect width="32" height="32" fill="white" transform="translate(0.5)"/>
</clipPath>
</defs>
</svg>
