<svg width="27" height="28" viewBox="0 0 27 28" fill="none" xmlns="http://www.w3.org/2000/svg">
<path d="M13.5003 0.666504C6.14833 0.666504 0.166992 6.64784 0.166992 13.9998C0.166992 21.3518 6.14833 27.3332 13.5003 27.3332C20.8523 27.3332 26.8337 21.3518 26.8337 13.9998C26.8337 6.64784 20.8523 0.666504 13.5003 0.666504ZM2.83366 13.9998C2.83366 12.8012 3.04166 11.6505 3.40833 10.5745L5.50033 12.6665L8.16699 15.3332V17.9998L10.8337 20.6665L12.167 21.9998V24.5745C6.91499 23.9145 2.83366 19.4292 2.83366 13.9998ZM21.9403 20.4972C21.0697 19.7958 19.7497 19.3332 18.8337 19.3332V17.9998C18.8337 17.2926 18.5527 16.6143 18.0526 16.1142C17.5525 15.6141 16.8742 15.3332 16.167 15.3332H10.8337V11.3332C11.5409 11.3332 12.2192 11.0522 12.7193 10.5521C13.2194 10.052 13.5003 9.37375 13.5003 8.6665V7.33317H14.8337C15.5409 7.33317 16.2192 7.05222 16.7193 6.55212C17.2194 6.05203 17.5003 5.37375 17.5003 4.6665V4.1185C21.4043 5.70384 24.167 9.53317 24.167 13.9998C24.1668 16.3528 23.3834 18.6387 21.9403 20.4972Z" fill="#333333"/>
</svg>
